<svg xmlns="http://www.w3.org/2000/svg" viewBox="0 0 16 16"><defs><style>.cls-1{fill:#101010;}.cls-2{fill:#fff;}</style></defs><g id="Layer_2" data-name="Layer 2"><g id="Layer_1-2" data-name="Layer 1"><rect class="cls-1" width="16" height="16"/><path class="cls-2" d="M14.11,8.7V9.85a2.37,2.37,0,0,1-1.7-.71,1.21,1.21,0,0,0-.94-.44,1.24,1.24,0,0,0-.94.44,2.39,2.39,0,0,1-3.4,0,1.21,1.21,0,0,0-.94-.44V7.55a2.33,2.33,0,0,1,1.7.72,1.26,1.26,0,0,0,.94.43,1.07,1.07,0,0,0,.7-.23V7.09L6.28,2.79,3,7.09v5.43H1.89V6.7L6.28.89l4.4,5.81v1a2.29,2.29,0,0,1,.79-.13,2.35,2.35,0,0,1,1.7.72A1.26,1.26,0,0,0,14.11,8.7Zm-3.58,5.2a1.23,1.23,0,0,1,1.89,0,2.32,2.32,0,0,0,1.69.71V13.46a1.26,1.26,0,0,1-.94-.43,2.35,2.35,0,0,0-1.7-.72A2.33,2.33,0,0,0,9.78,13a1.25,1.25,0,0,1-1.89,0,2.33,2.33,0,0,0-1.7-.72v1.15a1.28,1.28,0,0,1,.95.44,2.32,2.32,0,0,0,1.69.71A2.35,2.35,0,0,0,10.53,13.9Zm-.75-3.25a1.25,1.25,0,0,1-1.89,0,2.33,2.33,0,0,0-1.7-.72v1.15a1.28,1.28,0,0,1,.95.44,2.32,2.32,0,0,0,1.69.71,2.35,2.35,0,0,0,1.7-.71,1.23,1.23,0,0,1,1.89,0,2.32,2.32,0,0,0,1.69.71V11.08a1.26,1.26,0,0,1-.94-.43,2.35,2.35,0,0,0-1.7-.72A2.33,2.33,0,0,0,9.78,10.65Z"/></g></g></svg>